<svg viewBox="0 0 470 120" fill="none" xmlns="http://www.w3.org/2000/svg">
<path d="M263.004 16.9375C260.564 16.9375 258.5 17.875 256.999 19.5625C255.31 21.25 254.559 23.3125 254.559 25.75C254.559 28.1875 255.31 30.25 256.999 31.9375C258.688 33.625 260.752 34.5625 263.004 34.5625C265.443 34.5625 267.507 33.625 269.008 31.9375C270.697 30.25 271.448 28.1875 271.448 25.75C271.448 23.3125 270.697 21.25 269.008 19.5625C267.319 17.875 265.255 16.9375 263.004 16.9375Z" fill="#F7953A"/>
<path d="M263.003 39.0625C260.939 39.0625 259.25 39.8125 257.937 41.125C256.623 42.4375 255.873 44.3125 255.873 46.375V91.1875C255.873 93.25 256.623 94.9375 257.937 96.4375C259.25 97.9375 261.127 98.5 263.003 98.5C265.068 98.5 266.944 97.75 268.258 96.25C269.571 94.9375 270.134 93.0625 270.134 91V46.5625C270.134 44.5 269.384 42.625 268.258 41.3125C266.944 39.8125 265.068 39.0625 263.003 39.0625Z" fill="#F7953A"/>
<path d="M315.358 65.875C312.355 64.1875 308.415 62.875 303.348 61.75C300.158 61 297.531 60.25 295.842 59.6875C294.153 58.9375 293.403 58.1875 293.215 58C292.84 57.4375 292.652 56.6875 292.652 55.9375C292.652 55.1875 292.84 54.25 294.341 53.5C296.03 52.75 298.094 52.1875 300.533 52.1875C302.785 52.1875 304.662 52.375 306.351 52.9375C307.852 53.5 309.353 54.4375 310.666 55.75C311.98 57.0625 313.481 57.8125 315.358 58.1875C315.921 58.375 316.296 58.375 316.859 58.375C318.36 58.375 319.674 58 320.8 57.0625C322.301 55.9375 323.239 54.25 323.239 52.375C323.239 50.6875 322.676 49 321.55 47.5C319.486 44.875 316.484 42.625 312.918 41.125C309.353 39.625 305.225 38.875 300.721 38.875C297.156 38.875 293.778 39.4375 290.588 40.75C287.21 42.0625 284.396 43.9375 282.331 46.375C280.08 49 278.954 52.375 278.954 56.3125C278.954 60.8125 280.643 64.75 284.02 67.75C287.21 70.75 292.277 72.8125 299.22 74.3125C305.037 75.4375 307.476 76.5625 308.602 77.5C310.291 78.8125 310.479 80.125 310.479 80.875C310.479 81.625 310.291 82.9375 308.415 84.0625C306.913 85 304.474 85.5625 301.096 85.5625C298.469 85.5625 296.03 85 293.966 84.0625C291.902 83.125 290.4 82 289.462 81.0625C288.149 79.5625 286.647 78.8125 284.771 78.625C284.583 78.625 284.208 78.625 284.02 78.625C282.331 78.625 280.83 79.1875 279.329 80.5C277.828 81.625 276.89 83.3125 276.702 85.375C276.514 87.4375 277.077 89.3125 278.391 90.8125C280.83 93.25 284.02 95.3125 288.149 96.8125C292.277 98.3125 296.593 99.0625 301.472 99.0625C306.351 99.0625 310.479 98.3125 313.857 96.625C317.234 94.9375 319.861 92.6875 321.738 89.875C323.614 87.0625 324.365 83.875 324.365 80.3125C324.365 77.3125 323.614 74.5 322.301 72.0625C320.8 69.625 318.548 67.5625 315.358 65.875Z" fill="#F7953A"/>
<path d="M392.482 19.5625C391.919 17.875 390.793 16.5625 388.916 15.8125C387.978 15.25 386.852 15.0625 385.726 15.0625C384.976 15.0625 384.225 15.25 383.662 15.4375C381.973 16 380.66 17.125 379.721 18.8125L355.89 76L341.441 43.1875C340.69 41.5 339.377 40.375 337.688 39.8125C336.937 39.625 336.374 39.4375 335.624 39.4375C334.498 39.4375 333.56 39.625 332.621 40.1875C330.933 41.125 329.807 42.25 329.056 43.9375C328.493 45.625 328.493 47.3125 329.244 49L349.51 94C351.386 97.9375 354.201 98.6875 356.078 98.6875C358.142 98.6875 360.956 97.9375 362.645 94L392.482 24.625C393.044 22.9375 393.044 21.25 392.482 19.5625Z" fill="#F7953A"/>
<path d="M398.111 62.125C398.299 61.375 398.674 60.625 398.862 59.875C399.988 57.25 401.676 55.375 403.928 53.875C406.18 52.375 408.807 51.8125 411.997 51.8125C414.812 51.8125 417.064 52.375 418.94 53.6875C420.817 55 422.318 56.6875 423.444 59.125C423.819 60.0625 424.194 61 424.57 62.125H398.111ZM426.258 42.625C422.318 40 417.627 38.875 412.185 38.875C406.743 38.875 401.864 40.1875 397.548 42.8125C393.232 45.4375 390.042 49 387.603 53.5C385.163 58 384.037 63.25 384.037 69.0625C384.037 74.875 385.351 80.125 387.79 84.625C390.23 89.125 393.795 92.6875 398.299 95.3125C402.802 97.9375 407.869 99.25 413.498 99.25C416.688 99.25 420.066 98.6875 423.444 97.375C426.821 96.0625 429.824 94.5625 432.263 92.5C434.327 90.8125 434.703 88.9375 434.515 87.625C434.327 85.75 433.577 84.25 432.076 82.75C430.762 81.625 429.449 81.0625 427.76 81.0625H427.572C425.883 81.0625 424.57 81.625 423.068 82.75C421.943 83.6875 420.441 84.4375 418.565 85C416.688 85.75 415 85.9375 413.311 85.9375C410.121 85.9375 407.306 85.1875 404.679 83.6875C402.239 82.1875 400.363 80.3125 398.862 77.6875C398.299 76.75 397.923 75.8125 397.548 74.6875H431.137C433.014 74.6875 434.703 73.9375 435.829 72.8125C437.142 71.5 437.705 70 437.705 68.125C437.705 62.5 436.767 57.4375 434.703 53.125C433.201 48.625 430.199 45.0625 426.258 42.625Z" fill="#F7953A"/>
<path d="M468.292 86.3125C466.978 84.8125 465.477 84.0625 463.413 84.0625H460.974C460.786 84.0625 460.223 84.0625 459.472 82.75C458.722 81.4375 458.346 79.75 458.346 77.6875V22.9375C458.346 20.875 457.596 19.1875 456.47 17.6875C455.156 16.375 453.468 15.625 451.403 15.625C449.339 15.625 447.65 16.375 446.337 17.6875C445.023 19 444.46 20.875 444.46 22.9375V77.875C444.46 81.8125 445.211 85.375 446.525 88.375C447.838 91.5625 449.902 94 452.342 95.875C454.969 97.75 457.784 98.6875 461.161 98.6875H461.349C463.788 98.6875 465.852 98.125 467.354 96.8125C469.043 95.5 469.981 93.625 469.981 91.375C469.981 89.3125 469.418 87.625 468.292 86.3125Z" fill="#F7953A"/>
<path d="M218.718 49.9375C214.027 49.375 210.462 48.625 208.022 47.3125C205.77 46.1875 204.269 44.875 203.519 43.5625C202.768 42.0625 202.205 40.5625 202.205 38.875C202.205 35.6875 203.331 33.4375 205.958 31.9375C208.773 30.25 212.15 29.5 216.279 29.5H216.654C219.093 29.5 221.158 29.875 222.846 30.4375C224.535 31.1875 226.037 31.9375 227.35 33.25C228.664 34.375 229.79 35.875 230.54 37.5625C231.478 39.4375 232.98 40.5625 235.044 41.3125C235.794 41.5 236.545 41.6875 237.295 41.6875C238.609 41.6875 239.735 41.3125 241.048 40.5625C242.737 39.4375 243.676 37.75 243.863 35.875C244.051 34 243.676 32.125 242.362 30.25C240.673 27.4375 238.609 24.8125 236.357 22.5625C233.918 20.3125 231.103 18.625 228.101 17.3125C224.911 16 221.158 15.4375 217.029 15.4375C211.775 15.4375 206.896 16.375 202.58 18.0625C198.077 19.75 194.511 22.375 191.884 25.75C189.257 29.3125 187.944 33.4375 187.944 38.3125C187.944 45.0625 190.571 50.6875 195.45 55.1875C200.329 59.5 207.084 62.3125 215.528 63.0625C220.97 63.625 224.911 65.125 227.162 67.5625C229.414 70 230.54 72.625 230.54 75.625C230.54 77.875 229.977 79.75 228.664 81.25C227.35 82.9375 225.474 84.0625 223.222 85C220.97 85.9375 218.343 86.3125 215.528 86.3125C213.089 86.3125 210.649 85.9375 208.397 85.1875C206.146 84.4375 204.269 83.3125 202.768 82.1875C201.267 81.0625 200.141 79.75 199.578 78.4375C198.827 76.75 197.701 75.4375 196.013 74.5C194.887 73.9375 193.761 73.5625 192.447 73.5625C191.884 73.5625 191.509 73.5625 190.946 73.75C188.131 74.3125 186.818 76 186.067 77.125C185.129 79 184.941 81.0625 185.88 82.9375C187.193 86.3125 189.445 89.5 192.447 92.125C195.45 94.75 198.827 96.8125 202.956 98.125C206.896 99.625 211.025 100.188 215.528 100.188C219.093 100.188 222.846 99.625 226.224 98.6875C229.79 97.75 232.792 96.0625 235.607 94C238.421 91.9375 240.673 89.3125 242.362 86.125C244.051 82.9375 244.801 79.375 244.801 75.0625C244.801 67.75 242.362 61.9375 237.671 57.4375C233.167 53.5 226.787 50.875 218.718 49.9375Z" fill="#F7953A"/>
<mask id="mask0_4_2546" style="mask-type:alpha" maskUnits="userSpaceOnUse" x="24" y="17" width="130" height="82">
<path fill-rule="evenodd" clip-rule="evenodd" d="M82.7896 41.6875L70.7801 61C68.3406 64.9375 66.0888 67.5625 64.0247 69.0625C62.1482 70.5625 59.8964 71.3125 57.2693 71.3125C49.7633 71.3125 46.0103 67.375 46.0103 59.5C46.0103 55.375 47.6992 52.375 50.3263 49.75C54.6422 45.8125 58.0199 47.125 62.3358 42.8125C64.5876 40.5625 65.7135 37.75 65.7135 34.75V19.1875H63.2741C55.0175 19.1875 48.0745 20.875 42.2574 24.25C36.4402 27.625 31.9366 32.3125 28.9343 38.3125C25.9319 44.3125 24.4307 51.4375 24.4307 59.3125C24.4307 66.625 25.7442 73.1875 28.1837 79.1875C30.6231 85.1875 34.3761 90.0625 39.4426 93.4375C44.5091 97 50.3263 98.6875 57.2693 98.6875C70.5924 98.6875 81.2884 92.5 89.1697 80.3125L103.431 57.625C108.873 49.1875 114.502 45.0625 120.507 45.0625C124.448 45.0625 127.263 46.375 129.327 48.8125C131.203 51.25 132.141 54.625 132.141 58.375C132.141 62.5 130.828 65.875 128.388 68.3125C125.949 70.9375 122.196 72.25 117.317 72.25H110.562V87.8125C110.562 90.625 111.688 93.625 113.939 95.875C116.191 98.125 119.381 99.625 124.072 98.5C132.141 96.8125 138.897 93.625 143.776 87.8125C150.343 80.3125 153.533 70.9375 153.533 59.6875C153.533 52.75 152.783 46.1875 151.282 40C149.78 33.8125 146.778 28.5625 141.899 24.0625C137.02 19.5625 130.077 17.3125 120.695 17.3125C105.495 17.6875 92.735 25.5625 82.7896 41.6875Z" fill="white"/>
</mask>
<g mask="url(#mask0_4_2546)">
<path fill-rule="evenodd" clip-rule="evenodd" d="M82.7896 41.6875L70.7801 61C68.3406 64.9375 66.0888 67.5625 64.0247 69.0625C62.1482 70.5625 59.8964 71.3125 57.2693 71.3125C49.7633 71.3125 46.0103 67.375 46.0103 59.5C46.0103 55.375 47.6992 52.375 50.3263 49.75C54.6422 45.8125 58.0199 47.125 62.3358 42.8125C64.5876 40.5625 65.7135 37.75 65.7135 34.75V19.1875H63.2741C55.0175 19.1875 48.0745 20.875 42.2574 24.25C36.4402 27.625 31.9366 32.3125 28.9343 38.3125C25.9319 44.3125 24.4307 51.4375 24.4307 59.3125C24.4307 66.625 25.7442 73.1875 28.1837 79.1875C30.6231 85.1875 34.3761 90.0625 39.4426 93.4375C44.5091 97 50.3263 98.6875 57.2693 98.6875C70.5924 98.6875 81.2884 92.5 89.1697 80.3125L103.431 57.625C108.873 49.1875 114.502 45.0625 120.507 45.0625C124.448 45.0625 127.263 46.375 129.327 48.8125C131.203 51.25 132.141 54.625 132.141 58.375C132.141 62.5 130.828 65.875 128.388 68.3125C125.949 70.9375 122.196 72.25 117.317 72.25H110.562V87.8125C110.562 90.625 111.688 93.625 113.939 95.875C116.191 98.125 119.381 99.625 124.072 98.5C132.141 96.8125 138.897 93.625 143.776 87.8125C150.343 80.3125 153.533 70.9375 153.533 59.6875C153.533 52.75 152.783 46.1875 151.282 40C149.78 33.8125 146.778 28.5625 141.899 24.0625C137.02 19.5625 130.077 17.3125 120.695 17.3125C105.495 17.6875 92.735 25.5625 82.7896 41.6875Z" fill="url(#paint0_linear_4_2546)"/>
</g>
<mask id="mask1_4_2546" style="mask-type:alpha" maskUnits="userSpaceOnUse" x="27" y="19" width="39" height="53">
<path fill-rule="evenodd" clip-rule="evenodd" d="M63.312 19.2137C55.0554 19.2137 48.1124 20.9012 42.2952 24.2762C36.4781 27.6512 31.9745 32.3387 28.9721 38.3387C28.9721 38.3387 23.155 52.5887 34.9769 63.8387C44.3594 72.8387 57.3072 71.1512 57.3072 71.1512C49.8012 71.1512 46.0482 67.2137 46.0482 59.3387C46.0482 55.2137 47.7371 52.2137 50.3642 49.5887C54.6801 45.6512 58.0578 46.9637 62.3737 42.6512C64.6255 40.4012 65.7514 37.5887 65.7514 34.5887V19.2137H63.312Z" fill="white"/>
</mask>
<g mask="url(#mask1_4_2546)">
<path fill-rule="evenodd" clip-rule="evenodd" d="M63.312 19.2137C55.0554 19.2137 48.1124 20.9012 42.2952 24.2762C36.4781 27.6512 31.9745 32.3387 28.9721 38.3387C28.9721 38.3387 23.155 52.5887 34.9769 63.8387C44.3594 72.8387 57.3072 71.1512 57.3072 71.1512C49.8012 71.1512 46.0482 67.2137 46.0482 59.3387C46.0482 55.2137 47.7371 52.2137 50.3642 49.5887C54.6801 45.6512 58.0578 46.9637 62.3737 42.6512C64.6255 40.4012 65.7514 37.5887 65.7514 34.5887V19.2137H63.312Z" fill="url(#paint1_linear_4_2546)"/>
</g>
<mask id="mask2_4_2546" style="mask-type:alpha" maskUnits="userSpaceOnUse" x="110" y="44" width="41" height="55">
<path fill-rule="evenodd" clip-rule="evenodd" d="M120.378 45.1713C124.318 45.1713 127.133 46.4838 129.197 48.9213C131.074 51.3588 132.012 54.7338 132.012 58.4838C132.012 62.6088 130.698 65.9838 128.259 68.4213C125.819 71.0463 122.066 72.3588 117.188 72.3588H110.432V87.9213C110.432 90.7338 111.558 93.7338 113.81 95.9838C116.062 98.2338 119.252 99.7338 123.943 98.6088C132.012 96.9213 138.767 93.7338 143.646 87.9213C143.646 87.9213 157.157 70.2963 145.147 55.6713C137.266 45.9213 126.57 44.7963 122.254 44.7963C121.128 45.1713 120.378 45.1713 120.378 45.1713Z" fill="white"/>
</mask>
<g mask="url(#mask2_4_2546)">
<path fill-rule="evenodd" clip-rule="evenodd" d="M120.378 45.1713C124.318 45.1713 127.133 46.4838 129.197 48.9213C131.074 51.3588 132.012 54.7338 132.012 58.4838C132.012 62.6088 130.698 65.9838 128.259 68.4213C125.819 71.0463 122.066 72.3588 117.188 72.3588H110.432V87.9213C110.432 90.7338 111.558 93.7338 113.81 95.9838C116.062 98.2338 119.252 99.7338 123.943 98.6088C132.012 96.9213 138.767 93.7338 143.646 87.9213C143.646 87.9213 157.157 70.2963 145.147 55.6713C137.266 45.9213 126.57 44.7963 122.254 44.7963C121.128 45.1713 120.378 45.1713 120.378 45.1713Z" fill="url(#paint2_linear_4_2546)"/>
</g>
<defs>
<linearGradient id="paint0_linear_4_2546" x1="42.0706" y1="58.4704" x2="147.972" y2="58.4704" gradientUnits="userSpaceOnUse">
<stop stop-color="#F28E1B"/>
<stop offset="1" stop-color="#EE7530"/>
</linearGradient>
<linearGradient id="paint1_linear_4_2546" x1="61.4901" y1="53.6857" x2="51.4366" y2="47.8759" gradientUnits="userSpaceOnUse">
<stop stop-color="#232856"/>
<stop offset="1" stop-color="#293377"/>
</linearGradient>
<linearGradient id="paint2_linear_4_2546" x1="111.521" y1="72.2083" x2="150.317" y2="72.2083" gradientUnits="userSpaceOnUse">
<stop stop-color="#232856"/>
<stop offset="1" stop-color="#384798"/>
</linearGradient>
</defs>
</svg>
